<mxfile host="app.diagrams.net" agent="Mozilla/5.0 (Windows NT 10.0; Win64; x64) AppleWebKit/537.36 (KHTML, like Gecko) Chrome/135.0.0.0 Safari/537.36" version="26.2.14">
  <diagram name="Page-1" id="xWVk8Dd_HSNVdFJ_wTIC">
    <mxGraphModel dx="3780" dy="1693" grid="0" gridSize="10" guides="1" tooltips="1" connect="1" arrows="1" fold="1" page="0" pageScale="1" pageWidth="850" pageHeight="1100" math="0" shadow="0" adaptiveColors="auto">
      <root>
        <mxCell id="0" />
        <mxCell id="1" parent="0" />
        <mxCell id="PyQ2qdtUKRXWIdWM2zt3-3" style="edgeStyle=none;curved=1;rounded=0;orthogonalLoop=1;jettySize=auto;html=1;entryX=0;entryY=0.5;entryDx=0;entryDy=0;fontSize=12;startSize=8;endSize=8;labelBackgroundColor=none;strokeColor=#736CA8;fontColor=default;" edge="1" parent="1" source="PyQ2qdtUKRXWIdWM2zt3-1" target="PyQ2qdtUKRXWIdWM2zt3-2">
          <mxGeometry relative="1" as="geometry" />
        </mxCell>
        <mxCell id="PyQ2qdtUKRXWIdWM2zt3-1" value="shokolad ishlab&amp;nbsp;&lt;div&gt;chiqarish uchun&lt;/div&gt;&lt;div&gt;&amp;nbsp;buyurtma qabul qiladi&lt;/div&gt;" style="points=[[0.145,0.145,0],[0.5,0,0],[0.855,0.145,0],[1,0.5,0],[0.855,0.855,0],[0.5,1,0],[0.145,0.855,0],[0,0.5,0]];shape=mxgraph.bpmn.event;html=1;verticalLabelPosition=bottom;labelBackgroundColor=none;verticalAlign=top;align=center;perimeter=ellipsePerimeter;outlineConnect=0;aspect=fixed;outline=standard;symbol=message;fillColor=#5D7F99;strokeColor=#D0CEE2;fontColor=#1A1A1A;" vertex="1" parent="1">
          <mxGeometry x="-244" y="-44" width="50" height="50" as="geometry" />
        </mxCell>
        <mxCell id="PyQ2qdtUKRXWIdWM2zt3-4" style="edgeStyle=none;curved=1;rounded=0;orthogonalLoop=1;jettySize=auto;html=1;fontSize=12;startSize=8;endSize=8;labelBackgroundColor=none;strokeColor=#736CA8;fontColor=default;" edge="1" parent="1" source="PyQ2qdtUKRXWIdWM2zt3-2">
          <mxGeometry relative="1" as="geometry">
            <mxPoint x="115" y="-19" as="targetPoint" />
          </mxGeometry>
        </mxCell>
        <mxCell id="PyQ2qdtUKRXWIdWM2zt3-2" value="SAP tizimida buyurtmani ro‘yxatdan o‘tkazishi" style="rounded=0;whiteSpace=wrap;html=1;labelBackgroundColor=none;fillColor=#5D7F99;strokeColor=#D0CEE2;fontColor=#1A1A1A;" vertex="1" parent="1">
          <mxGeometry x="-106" y="-49" width="120" height="60" as="geometry" />
        </mxCell>
        <mxCell id="PyQ2qdtUKRXWIdWM2zt3-6" style="edgeStyle=none;curved=1;rounded=0;orthogonalLoop=1;jettySize=auto;html=1;fontSize=12;startSize=8;endSize=8;labelBackgroundColor=none;strokeColor=#736CA8;fontColor=default;" edge="1" parent="1" source="PyQ2qdtUKRXWIdWM2zt3-5">
          <mxGeometry relative="1" as="geometry">
            <mxPoint x="350" y="-22" as="targetPoint" />
          </mxGeometry>
        </mxCell>
        <mxCell id="PyQ2qdtUKRXWIdWM2zt3-5" value="&amp;nbsp;retsepti boshqarilishi" style="rounded=0;whiteSpace=wrap;html=1;labelBackgroundColor=none;fillColor=#5D7F99;strokeColor=#D0CEE2;fontColor=#1A1A1A;" vertex="1" parent="1">
          <mxGeometry x="112" y="-52" width="136" height="60" as="geometry" />
        </mxCell>
        <mxCell id="PyQ2qdtUKRXWIdWM2zt3-8" style="edgeStyle=none;curved=1;rounded=0;orthogonalLoop=1;jettySize=auto;html=1;fontSize=12;startSize=8;endSize=8;labelBackgroundColor=none;strokeColor=#736CA8;fontColor=default;" edge="1" parent="1" source="PyQ2qdtUKRXWIdWM2zt3-7">
          <mxGeometry relative="1" as="geometry">
            <mxPoint x="548" y="-22" as="targetPoint" />
          </mxGeometry>
        </mxCell>
        <mxCell id="PyQ2qdtUKRXWIdWM2zt3-7" value="(MM) bo‘limiga fikr-mulohaza yuborilishi kerak." style="rounded=0;whiteSpace=wrap;html=1;labelBackgroundColor=none;fillColor=#5D7F99;strokeColor=#D0CEE2;fontColor=#1A1A1A;" vertex="1" parent="1">
          <mxGeometry x="346" y="-52" width="120" height="60" as="geometry" />
        </mxCell>
        <mxCell id="PyQ2qdtUKRXWIdWM2zt3-9" value="mavjudligini (materiallar mavjudligi hujjati asosida) tekshiradi&amp;nbsp;" style="rhombus;whiteSpace=wrap;html=1;labelBackgroundColor=none;fillColor=#5D7F99;strokeColor=#D0CEE2;fontColor=#1A1A1A;" vertex="1" parent="1">
          <mxGeometry x="528" y="-89.5" width="120" height="135" as="geometry" />
        </mxCell>
        <mxCell id="PyQ2qdtUKRXWIdWM2zt3-21" style="edgeStyle=none;curved=1;rounded=0;orthogonalLoop=1;jettySize=auto;html=1;fontSize=12;startSize=8;endSize=8;labelBackgroundColor=none;strokeColor=#736CA8;fontColor=default;" edge="1" parent="1" source="PyQ2qdtUKRXWIdWM2zt3-12">
          <mxGeometry relative="1" as="geometry">
            <mxPoint x="302" y="181" as="targetPoint" />
          </mxGeometry>
        </mxCell>
        <mxCell id="PyQ2qdtUKRXWIdWM2zt3-12" value="" style="points=[[0.145,0.145,0],[0.5,0,0],[0.855,0.145,0],[1,0.5,0],[0.855,0.855,0],[0.5,1,0],[0.145,0.855,0],[0,0.5,0]];shape=mxgraph.bpmn.event;html=1;verticalLabelPosition=bottom;labelBackgroundColor=none;verticalAlign=top;align=center;perimeter=ellipsePerimeter;outlineConnect=0;aspect=fixed;outline=standard;symbol=general;fillColor=#5D7F99;strokeColor=#D0CEE2;fontColor=#1A1A1A;" vertex="1" parent="1">
          <mxGeometry x="419" y="141" width="80" height="80" as="geometry" />
        </mxCell>
        <mxCell id="PyQ2qdtUKRXWIdWM2zt3-15" value="" style="edgeStyle=none;curved=1;rounded=0;orthogonalLoop=1;jettySize=auto;html=1;exitX=0.5;exitY=1;exitDx=0;exitDy=0;fontSize=12;startSize=8;endSize=8;labelBackgroundColor=none;strokeColor=#736CA8;fontColor=default;" edge="1" parent="1" source="PyQ2qdtUKRXWIdWM2zt3-9" target="PyQ2qdtUKRXWIdWM2zt3-11">
          <mxGeometry relative="1" as="geometry">
            <mxPoint x="588.3333333333335" y="258.3333333333335" as="targetPoint" />
            <mxPoint x="588" y="46" as="sourcePoint" />
          </mxGeometry>
        </mxCell>
        <mxCell id="PyQ2qdtUKRXWIdWM2zt3-11" value="" style="points=[[0.25,0.25,0],[0.5,0,0],[0.75,0.25,0],[1,0.5,0],[0.75,0.75,0],[0.5,1,0],[0.25,0.75,0],[0,0.5,0]];shape=mxgraph.bpmn.gateway2;html=1;verticalLabelPosition=bottom;labelBackgroundColor=none;verticalAlign=top;align=center;perimeter=rhombusPerimeter;outlineConnect=0;outline=none;symbol=none;gwType=exclusive;fillColor=#5D7F99;strokeColor=#D0CEE2;fontColor=#1A1A1A;" vertex="1" parent="1">
          <mxGeometry x="564" y="252" width="55" height="60" as="geometry" />
        </mxCell>
        <mxCell id="PyQ2qdtUKRXWIdWM2zt3-16" style="edgeStyle=orthogonalEdgeStyle;rounded=0;orthogonalLoop=1;jettySize=auto;html=1;entryX=0.5;entryY=1;entryDx=0;entryDy=0;entryPerimeter=0;fontSize=12;startSize=8;endSize=8;labelBackgroundColor=none;strokeColor=#736CA8;fontColor=default;" edge="1" parent="1" source="PyQ2qdtUKRXWIdWM2zt3-11" target="PyQ2qdtUKRXWIdWM2zt3-12">
          <mxGeometry relative="1" as="geometry">
            <Array as="points">
              <mxPoint x="535" y="282" />
              <mxPoint x="535" y="196" />
            </Array>
          </mxGeometry>
        </mxCell>
        <mxCell id="PyQ2qdtUKRXWIdWM2zt3-19" value="materiallar&amp;nbsp;&lt;div&gt;bor bolsa&lt;/div&gt;" style="edgeLabel;html=1;align=center;verticalAlign=middle;resizable=0;points=[];fontSize=12;labelBackgroundColor=none;fontColor=#1A1A1A;" vertex="1" connectable="0" parent="PyQ2qdtUKRXWIdWM2zt3-16">
          <mxGeometry x="0.7512" y="-1" relative="1" as="geometry">
            <mxPoint x="-2" y="37" as="offset" />
          </mxGeometry>
        </mxCell>
        <mxCell id="PyQ2qdtUKRXWIdWM2zt3-23" style="edgeStyle=none;curved=1;rounded=0;orthogonalLoop=1;jettySize=auto;html=1;fontSize=12;startSize=8;endSize=8;labelBackgroundColor=none;strokeColor=#736CA8;fontColor=default;" edge="1" parent="1" source="PyQ2qdtUKRXWIdWM2zt3-17">
          <mxGeometry relative="1" as="geometry">
            <mxPoint x="296" y="364" as="targetPoint" />
          </mxGeometry>
        </mxCell>
        <mxCell id="PyQ2qdtUKRXWIdWM2zt3-17" value="materiallar&lt;div&gt;&amp;nbsp;bo&#39;lmasa&lt;/div&gt;" style="points=[[0.145,0.145,0],[0.5,0,0],[0.855,0.145,0],[1,0.5,0],[0.855,0.855,0],[0.5,1,0],[0.145,0.855,0],[0,0.5,0]];shape=mxgraph.bpmn.event;html=1;verticalLabelPosition=bottom;labelBackgroundColor=none;verticalAlign=top;align=center;perimeter=ellipsePerimeter;outlineConnect=0;aspect=fixed;outline=standard;symbol=general;fillColor=#5D7F99;strokeColor=#D0CEE2;fontColor=#1A1A1A;" vertex="1" parent="1">
          <mxGeometry x="419" y="331" width="78" height="78" as="geometry" />
        </mxCell>
        <mxCell id="PyQ2qdtUKRXWIdWM2zt3-18" style="edgeStyle=orthogonalEdgeStyle;rounded=0;orthogonalLoop=1;jettySize=auto;html=1;entryX=0.145;entryY=0.145;entryDx=0;entryDy=0;entryPerimeter=0;fontSize=12;startSize=8;endSize=8;labelBackgroundColor=none;strokeColor=#736CA8;fontColor=default;" edge="1" parent="1" source="PyQ2qdtUKRXWIdWM2zt3-11" target="PyQ2qdtUKRXWIdWM2zt3-17">
          <mxGeometry relative="1" as="geometry">
            <Array as="points">
              <mxPoint x="534" y="282" />
              <mxPoint x="534" y="383" />
            </Array>
          </mxGeometry>
        </mxCell>
        <mxCell id="PyQ2qdtUKRXWIdWM2zt3-26" style="edgeStyle=orthogonalEdgeStyle;rounded=0;orthogonalLoop=1;jettySize=auto;html=1;fontSize=12;startSize=8;endSize=8;labelBackgroundColor=none;strokeColor=#736CA8;fontColor=default;" edge="1" parent="1" source="PyQ2qdtUKRXWIdWM2zt3-22">
          <mxGeometry relative="1" as="geometry">
            <mxPoint x="80" y="312" as="targetPoint" />
          </mxGeometry>
        </mxCell>
        <mxCell id="PyQ2qdtUKRXWIdWM2zt3-22" value="MM protsessori ishlab chiqarish jarayonini tayyorlashi kerak" style="rounded=0;whiteSpace=wrap;html=1;labelBackgroundColor=none;fillColor=#5D7F99;strokeColor=#D0CEE2;fontColor=#1A1A1A;" vertex="1" parent="1">
          <mxGeometry x="172" y="144" width="120" height="60" as="geometry" />
        </mxCell>
        <mxCell id="PyQ2qdtUKRXWIdWM2zt3-25" style="edgeStyle=none;curved=1;rounded=0;orthogonalLoop=1;jettySize=auto;html=1;entryX=0.5;entryY=1;entryDx=0;entryDy=0;fontSize=12;startSize=8;endSize=8;labelBackgroundColor=none;strokeColor=#736CA8;fontColor=default;" edge="1" parent="1" source="PyQ2qdtUKRXWIdWM2zt3-24" target="PyQ2qdtUKRXWIdWM2zt3-22">
          <mxGeometry relative="1" as="geometry" />
        </mxCell>
        <mxCell id="PyQ2qdtUKRXWIdWM2zt3-24" value="ridor tomonidan buyurtma berilishi kerak&amp;nbsp;" style="rounded=0;whiteSpace=wrap;html=1;labelBackgroundColor=none;fillColor=#5D7F99;strokeColor=#D0CEE2;fontColor=#1A1A1A;" vertex="1" parent="1">
          <mxGeometry x="176" y="316" width="120" height="60" as="geometry" />
        </mxCell>
        <mxCell id="PyQ2qdtUKRXWIdWM2zt3-28" style="edgeStyle=none;curved=1;rounded=0;orthogonalLoop=1;jettySize=auto;html=1;fontSize=12;startSize=8;endSize=8;labelBackgroundColor=none;strokeColor=#736CA8;fontColor=default;" edge="1" parent="1" source="PyQ2qdtUKRXWIdWM2zt3-27">
          <mxGeometry relative="1" as="geometry">
            <mxPoint x="-199.25" y="338.4999999999998" as="targetPoint" />
          </mxGeometry>
        </mxCell>
        <mxCell id="PyQ2qdtUKRXWIdWM2zt3-27" value="Keyingi bosqichda operatorlar tomonidan shokolad ishlab chiqarish jarayoni boshlanadi." style="rounded=0;whiteSpace=wrap;html=1;labelBackgroundColor=none;fillColor=#5D7F99;strokeColor=#D0CEE2;fontColor=#1A1A1A;" vertex="1" parent="1">
          <mxGeometry x="-92" y="301" width="232" height="75" as="geometry" />
        </mxCell>
        <mxCell id="PyQ2qdtUKRXWIdWM2zt3-32" style="edgeStyle=none;curved=1;rounded=0;orthogonalLoop=1;jettySize=auto;html=1;fontSize=12;startSize=8;endSize=8;labelBackgroundColor=none;strokeColor=#736CA8;fontColor=default;" edge="1" parent="1" source="PyQ2qdtUKRXWIdWM2zt3-30">
          <mxGeometry relative="1" as="geometry">
            <mxPoint x="-319.25" y="331.25" as="targetPoint" />
          </mxGeometry>
        </mxCell>
        <mxCell id="PyQ2qdtUKRXWIdWM2zt3-30" value="" style="ellipse;whiteSpace=wrap;html=1;aspect=fixed;labelBackgroundColor=none;fillColor=#5D7F99;strokeColor=#D0CEE2;fontColor=#1A1A1A;" vertex="1" parent="1">
          <mxGeometry x="-250" y="303.5" width="70" height="70" as="geometry" />
        </mxCell>
        <mxCell id="PyQ2qdtUKRXWIdWM2zt3-31" value="Kakaoni shlab&lt;div&gt;&amp;nbsp;chiqarish&lt;div&gt;&amp;nbsp;boshlandi&lt;/div&gt;&lt;/div&gt;" style="text;html=1;align=center;verticalAlign=middle;resizable=0;points=[];autosize=1;strokeColor=none;fillColor=none;fontSize=16;labelBackgroundColor=none;fontColor=#1A1A1A;" vertex="1" parent="1">
          <mxGeometry x="-268" y="373.5" width="119" height="70" as="geometry" />
        </mxCell>
        <mxCell id="PyQ2qdtUKRXWIdWM2zt3-34" style="edgeStyle=none;curved=1;rounded=0;orthogonalLoop=1;jettySize=auto;html=1;fontSize=12;startSize=8;endSize=8;labelBackgroundColor=none;strokeColor=#736CA8;fontColor=default;" edge="1" parent="1" source="PyQ2qdtUKRXWIdWM2zt3-33">
          <mxGeometry relative="1" as="geometry">
            <mxPoint x="-485.5" y="333.4999999999998" as="targetPoint" />
          </mxGeometry>
        </mxCell>
        <mxCell id="PyQ2qdtUKRXWIdWM2zt3-33" value="kakao donalari qovuriladi" style="rounded=0;whiteSpace=wrap;html=1;labelBackgroundColor=none;fillColor=#5D7F99;strokeColor=#D0CEE2;fontColor=#1A1A1A;" vertex="1" parent="1">
          <mxGeometry x="-433" y="303.5" width="120" height="60" as="geometry" />
        </mxCell>
        <mxCell id="PyQ2qdtUKRXWIdWM2zt3-37" value="" style="edgeStyle=none;curved=1;rounded=0;orthogonalLoop=1;jettySize=auto;html=1;fontSize=12;startSize=8;endSize=8;labelBackgroundColor=none;strokeColor=#736CA8;fontColor=default;" edge="1" parent="1" source="PyQ2qdtUKRXWIdWM2zt3-35" target="PyQ2qdtUKRXWIdWM2zt3-36">
          <mxGeometry relative="1" as="geometry" />
        </mxCell>
        <mxCell id="PyQ2qdtUKRXWIdWM2zt3-35" value="maydalab kukun holatiga keltirilad" style="rounded=0;whiteSpace=wrap;html=1;labelBackgroundColor=none;fillColor=#5D7F99;strokeColor=#D0CEE2;fontColor=#1A1A1A;" vertex="1" parent="1">
          <mxGeometry x="-595" y="303" width="120" height="60" as="geometry" />
        </mxCell>
        <mxCell id="PyQ2qdtUKRXWIdWM2zt3-39" value="" style="edgeStyle=none;curved=1;rounded=0;orthogonalLoop=1;jettySize=auto;html=1;fontSize=12;startSize=8;endSize=8;labelBackgroundColor=none;strokeColor=#736CA8;fontColor=default;" edge="1" parent="1" source="PyQ2qdtUKRXWIdWM2zt3-36" target="PyQ2qdtUKRXWIdWM2zt3-38">
          <mxGeometry relative="1" as="geometry" />
        </mxCell>
        <mxCell id="PyQ2qdtUKRXWIdWM2zt3-36" value="kakao massasi&amp;nbsp;&amp;nbsp;tayyorlanadi&amp;nbsp;" style="whiteSpace=wrap;html=1;rounded=0;labelBackgroundColor=none;fillColor=#5D7F99;strokeColor=#D0CEE2;fontColor=#1A1A1A;" vertex="1" parent="1">
          <mxGeometry x="-835" y="303" width="120" height="60" as="geometry" />
        </mxCell>
        <mxCell id="PyQ2qdtUKRXWIdWM2zt3-43" style="edgeStyle=none;curved=1;rounded=0;orthogonalLoop=1;jettySize=auto;html=1;fontSize=12;startSize=8;endSize=8;labelBackgroundColor=none;strokeColor=#736CA8;fontColor=default;" edge="1" parent="1" source="PyQ2qdtUKRXWIdWM2zt3-38" target="PyQ2qdtUKRXWIdWM2zt3-40">
          <mxGeometry relative="1" as="geometry" />
        </mxCell>
        <mxCell id="PyQ2qdtUKRXWIdWM2zt3-38" value="siqib olinadi." style="whiteSpace=wrap;html=1;rounded=0;labelBackgroundColor=none;fillColor=#5D7F99;strokeColor=#D0CEE2;fontColor=#1A1A1A;" vertex="1" parent="1">
          <mxGeometry x="-1075" y="303" width="120" height="60" as="geometry" />
        </mxCell>
        <mxCell id="PyQ2qdtUKRXWIdWM2zt3-45" style="edgeStyle=orthogonalEdgeStyle;rounded=0;orthogonalLoop=1;jettySize=auto;html=1;entryX=0.5;entryY=0;entryDx=0;entryDy=0;fontSize=12;startSize=8;endSize=8;labelBackgroundColor=none;strokeColor=#736CA8;fontColor=default;" edge="1" parent="1" source="PyQ2qdtUKRXWIdWM2zt3-40" target="PyQ2qdtUKRXWIdWM2zt3-48">
          <mxGeometry relative="1" as="geometry">
            <mxPoint x="-1162" y="414" as="targetPoint" />
            <Array as="points">
              <mxPoint x="-1143" y="366" />
              <mxPoint x="-1208" y="366" />
            </Array>
          </mxGeometry>
        </mxCell>
        <mxCell id="PyQ2qdtUKRXWIdWM2zt3-46" style="edgeStyle=orthogonalEdgeStyle;rounded=0;orthogonalLoop=1;jettySize=auto;html=1;fontSize=12;startSize=8;endSize=8;labelBackgroundColor=none;strokeColor=#736CA8;fontColor=default;" edge="1" parent="1" source="PyQ2qdtUKRXWIdWM2zt3-40" target="PyQ2qdtUKRXWIdWM2zt3-47">
          <mxGeometry relative="1" as="geometry">
            <mxPoint x="-1063.9333333333334" y="401" as="targetPoint" />
            <Array as="points">
              <mxPoint x="-1143" y="369" />
              <mxPoint x="-1064" y="369" />
            </Array>
          </mxGeometry>
        </mxCell>
        <mxCell id="PyQ2qdtUKRXWIdWM2zt3-40" value="" style="points=[[0.25,0.25,0],[0.5,0,0],[0.75,0.25,0],[1,0.5,0],[0.75,0.75,0],[0.5,1,0],[0.25,0.75,0],[0,0.5,0]];shape=mxgraph.bpmn.gateway2;html=1;verticalLabelPosition=bottom;labelBackgroundColor=none;verticalAlign=top;align=center;perimeter=rhombusPerimeter;outlineConnect=0;outline=none;symbol=none;gwType=parallel;fillColor=#5D7F99;strokeColor=#D0CEE2;fontColor=#1A1A1A;" vertex="1" parent="1">
          <mxGeometry x="-1168" y="309" width="50" height="50" as="geometry" />
        </mxCell>
        <mxCell id="PyQ2qdtUKRXWIdWM2zt3-52" style="edgeStyle=none;curved=1;rounded=0;orthogonalLoop=1;jettySize=auto;html=1;fontSize=12;startSize=8;endSize=8;labelBackgroundColor=none;strokeColor=#736CA8;fontColor=default;" edge="1" parent="1" source="PyQ2qdtUKRXWIdWM2zt3-47">
          <mxGeometry relative="1" as="geometry">
            <mxPoint x="-1052" y="645.6666666666666" as="targetPoint" />
          </mxGeometry>
        </mxCell>
        <mxCell id="PyQ2qdtUKRXWIdWM2zt3-47" value="" style="ellipse;whiteSpace=wrap;html=1;aspect=fixed;labelBackgroundColor=none;fillColor=#5D7F99;strokeColor=#D0CEE2;fontColor=#1A1A1A;" vertex="1" parent="1">
          <mxGeometry x="-1091" y="525" width="77" height="77" as="geometry" />
        </mxCell>
        <mxCell id="PyQ2qdtUKRXWIdWM2zt3-48" value="" style="ellipse;whiteSpace=wrap;html=1;aspect=fixed;labelBackgroundColor=none;fillColor=#5D7F99;strokeColor=#D0CEE2;fontColor=#1A1A1A;" vertex="1" parent="1">
          <mxGeometry x="-1244.5" y="522" width="80" height="80" as="geometry" />
        </mxCell>
        <mxCell id="PyQ2qdtUKRXWIdWM2zt3-49" value="Kakao keki&lt;div&gt;&amp;nbsp;tayyorlandi&lt;/div&gt;" style="text;html=1;align=center;verticalAlign=middle;resizable=0;points=[];autosize=1;strokeColor=none;fillColor=none;fontSize=16;labelBackgroundColor=none;fontColor=#1A1A1A;" vertex="1" parent="1">
          <mxGeometry x="-1264.5" y="465.5" width="100" height="50" as="geometry" />
        </mxCell>
        <mxCell id="PyQ2qdtUKRXWIdWM2zt3-50" value="Kakao yog&#39;i&amp;nbsp;&lt;div&gt;tayyorlandi&lt;/div&gt;" style="text;html=1;align=center;verticalAlign=middle;resizable=0;points=[];autosize=1;strokeColor=none;fillColor=none;fontSize=16;labelBackgroundColor=none;fontColor=#1A1A1A;" vertex="1" parent="1">
          <mxGeometry x="-1111" y="465.5" width="105" height="50" as="geometry" />
        </mxCell>
        <mxCell id="PyQ2qdtUKRXWIdWM2zt3-59" style="edgeStyle=orthogonalEdgeStyle;rounded=0;orthogonalLoop=1;jettySize=auto;html=1;entryX=0;entryY=0.5;entryDx=0;entryDy=0;fontSize=12;startSize=8;endSize=8;exitX=1;exitY=0.5;exitDx=0;exitDy=0;exitPerimeter=0;labelBackgroundColor=none;strokeColor=#736CA8;fontColor=default;" edge="1" parent="1" source="PyQ2qdtUKRXWIdWM2zt3-53" target="PyQ2qdtUKRXWIdWM2zt3-55">
          <mxGeometry relative="1" as="geometry" />
        </mxCell>
        <mxCell id="PyQ2qdtUKRXWIdWM2zt3-60" style="edgeStyle=orthogonalEdgeStyle;rounded=0;orthogonalLoop=1;jettySize=auto;html=1;fontSize=12;startSize=8;endSize=8;labelBackgroundColor=none;strokeColor=#736CA8;fontColor=default;" edge="1" parent="1" source="PyQ2qdtUKRXWIdWM2zt3-53" target="PyQ2qdtUKRXWIdWM2zt3-57">
          <mxGeometry relative="1" as="geometry" />
        </mxCell>
        <mxCell id="PyQ2qdtUKRXWIdWM2zt3-53" value="" style="points=[[0.25,0.25,0],[0.5,0,0],[0.75,0.25,0],[1,0.5,0],[0.75,0.75,0],[0.5,1,0],[0.25,0.75,0],[0,0.5,0]];shape=mxgraph.bpmn.gateway2;html=1;verticalLabelPosition=bottom;labelBackgroundColor=none;verticalAlign=top;align=center;perimeter=rhombusPerimeter;outlineConnect=0;outline=none;symbol=none;gwType=parallel;fillColor=#5D7F99;strokeColor=#D0CEE2;fontColor=#1A1A1A;" vertex="1" parent="1">
          <mxGeometry x="-1075" y="640" width="50" height="50" as="geometry" />
        </mxCell>
        <mxCell id="PyQ2qdtUKRXWIdWM2zt3-64" value="" style="edgeStyle=orthogonalEdgeStyle;rounded=0;orthogonalLoop=1;jettySize=auto;html=1;fontSize=12;startSize=8;endSize=8;labelBackgroundColor=none;strokeColor=#736CA8;fontColor=default;" edge="1" parent="1" source="PyQ2qdtUKRXWIdWM2zt3-55" target="PyQ2qdtUKRXWIdWM2zt3-62">
          <mxGeometry relative="1" as="geometry" />
        </mxCell>
        <mxCell id="PyQ2qdtUKRXWIdWM2zt3-55" value="aroma aralashtiriladi" style="rounded=0;whiteSpace=wrap;html=1;labelBackgroundColor=none;fillColor=#5D7F99;strokeColor=#D0CEE2;fontColor=#1A1A1A;" vertex="1" parent="1">
          <mxGeometry x="-940" y="593" width="120" height="60" as="geometry" />
        </mxCell>
        <mxCell id="PyQ2qdtUKRXWIdWM2zt3-63" style="edgeStyle=orthogonalEdgeStyle;rounded=0;orthogonalLoop=1;jettySize=auto;html=1;entryX=0;entryY=0.5;entryDx=0;entryDy=0;fontSize=12;startSize=8;endSize=8;labelBackgroundColor=none;strokeColor=#736CA8;fontColor=default;" edge="1" parent="1" source="PyQ2qdtUKRXWIdWM2zt3-57" target="PyQ2qdtUKRXWIdWM2zt3-62">
          <mxGeometry relative="1" as="geometry" />
        </mxCell>
        <mxCell id="PyQ2qdtUKRXWIdWM2zt3-57" value="sut qo‘shiladi," style="rounded=0;whiteSpace=wrap;html=1;labelBackgroundColor=none;fillColor=#5D7F99;strokeColor=#D0CEE2;fontColor=#1A1A1A;" vertex="1" parent="1">
          <mxGeometry x="-940" y="683" width="120" height="60" as="geometry" />
        </mxCell>
        <mxCell id="PyQ2qdtUKRXWIdWM2zt3-65" style="edgeStyle=none;curved=1;rounded=0;orthogonalLoop=1;jettySize=auto;html=1;strokeColor=#736CA8;fontSize=12;fontColor=default;startSize=8;endSize=8;labelBackgroundColor=none;" edge="1" parent="1" source="PyQ2qdtUKRXWIdWM2zt3-62">
          <mxGeometry relative="1" as="geometry">
            <mxPoint x="-460.3333333333335" y="665" as="targetPoint" />
          </mxGeometry>
        </mxCell>
        <mxCell id="PyQ2qdtUKRXWIdWM2zt3-62" value="&amp;nbsp;so‘ng shokolad massasi hosil qilinadi" style="rounded=0;whiteSpace=wrap;html=1;labelBackgroundColor=none;fillColor=#5D7F99;strokeColor=#D0CEE2;fontColor=#1A1A1A;" vertex="1" parent="1">
          <mxGeometry x="-679" y="635" width="120" height="60" as="geometry" />
        </mxCell>
        <mxCell id="PyQ2qdtUKRXWIdWM2zt3-68" value="" style="edgeStyle=none;curved=1;rounded=0;orthogonalLoop=1;jettySize=auto;html=1;strokeColor=#736CA8;fontSize=12;fontColor=default;startSize=8;endSize=8;labelBackgroundColor=none;" edge="1" parent="1" source="PyQ2qdtUKRXWIdWM2zt3-66">
          <mxGeometry relative="1" as="geometry">
            <mxPoint x="-312.9999999999932" y="664" as="targetPoint" />
          </mxGeometry>
        </mxCell>
        <mxCell id="PyQ2qdtUKRXWIdWM2zt3-66" value="" style="points=[[0.25,0.25,0],[0.5,0,0],[0.75,0.25,0],[1,0.5,0],[0.75,0.75,0],[0.5,1,0],[0.25,0.75,0],[0,0.5,0]];shape=mxgraph.bpmn.gateway2;html=1;verticalLabelPosition=bottom;labelBackgroundColor=none;verticalAlign=top;align=center;perimeter=rhombusPerimeter;outlineConnect=0;outline=none;symbol=none;gwType=parallel;strokeColor=#D0CEE2;fontColor=#1A1A1A;fillColor=#5D7F99;" vertex="1" parent="1">
          <mxGeometry x="-467" y="638" width="50" height="50" as="geometry" />
        </mxCell>
        <mxCell id="PyQ2qdtUKRXWIdWM2zt3-71" style="edgeStyle=none;curved=1;rounded=0;orthogonalLoop=1;jettySize=auto;html=1;strokeColor=#736CA8;fontSize=12;fontColor=#1A1A1A;startSize=8;endSize=8;" edge="1" parent="1" source="PyQ2qdtUKRXWIdWM2zt3-69">
          <mxGeometry relative="1" as="geometry">
            <mxPoint x="-151.33333333333303" y="660.0000000000002" as="targetPoint" />
          </mxGeometry>
        </mxCell>
        <mxCell id="PyQ2qdtUKRXWIdWM2zt3-69" value="" style="points=[[0.145,0.145,0],[0.5,0,0],[0.855,0.145,0],[1,0.5,0],[0.855,0.855,0],[0.5,1,0],[0.145,0.855,0],[0,0.5,0]];shape=mxgraph.bpmn.event;html=1;verticalLabelPosition=bottom;labelBackgroundColor=none;verticalAlign=top;align=center;perimeter=ellipsePerimeter;outlineConnect=0;aspect=fixed;outline=end;symbol=terminate2;strokeColor=#D0CEE2;fontColor=#1A1A1A;fillColor=#5D7F99;" vertex="1" parent="1">
          <mxGeometry x="-321" y="635" width="50" height="50" as="geometry" />
        </mxCell>
        <mxCell id="PyQ2qdtUKRXWIdWM2zt3-70" value="chocolate&amp;nbsp;&lt;div&gt;mass is&amp;nbsp;&lt;/div&gt;&lt;div&gt;created&lt;/div&gt;" style="text;html=1;align=center;verticalAlign=middle;resizable=0;points=[];autosize=1;strokeColor=none;fillColor=none;fontSize=16;fontColor=#1A1A1A;labelBackgroundColor=none;" vertex="1" parent="1">
          <mxGeometry x="-341.5" y="678" width="91" height="70" as="geometry" />
        </mxCell>
        <mxCell id="PyQ2qdtUKRXWIdWM2zt3-73" style="edgeStyle=none;curved=1;rounded=0;orthogonalLoop=1;jettySize=auto;html=1;strokeColor=#736CA8;fontSize=12;fontColor=#1A1A1A;startSize=8;endSize=8;" edge="1" parent="1" source="PyQ2qdtUKRXWIdWM2zt3-72">
          <mxGeometry relative="1" as="geometry">
            <mxPoint x="53.66666666666697" y="655.0000000000002" as="targetPoint" />
          </mxGeometry>
        </mxCell>
        <mxCell id="PyQ2qdtUKRXWIdWM2zt3-72" value="hokolad massasi shakllantirilad" style="rounded=0;whiteSpace=wrap;html=1;strokeColor=#D0CEE2;fontColor=#1A1A1A;fillColor=#5D7F99;" vertex="1" parent="1">
          <mxGeometry x="-151" y="625" width="120" height="60" as="geometry" />
        </mxCell>
        <mxCell id="PyQ2qdtUKRXWIdWM2zt3-80" style="edgeStyle=orthogonalEdgeStyle;rounded=0;orthogonalLoop=1;jettySize=auto;html=1;strokeColor=#736CA8;fontSize=12;fontColor=#1A1A1A;startSize=8;endSize=8;entryX=0.5;entryY=1;entryDx=0;entryDy=0;entryPerimeter=0;" edge="1" parent="1" source="PyQ2qdtUKRXWIdWM2zt3-75" target="PyQ2qdtUKRXWIdWM2zt3-82">
          <mxGeometry relative="1" as="geometry">
            <mxPoint x="302" y="655" as="targetPoint" />
          </mxGeometry>
        </mxCell>
        <mxCell id="PyQ2qdtUKRXWIdWM2zt3-75" value="" style="points=[[0.145,0.145,0],[0.5,0,0],[0.855,0.145,0],[1,0.5,0],[0.855,0.855,0],[0.5,1,0],[0.145,0.855,0],[0,0.5,0]];shape=mxgraph.bpmn.event;html=1;verticalLabelPosition=bottom;labelBackgroundColor=#ffffff;verticalAlign=top;align=center;perimeter=ellipsePerimeter;outlineConnect=0;aspect=fixed;outline=end;symbol=terminate2;strokeColor=#D0CEE2;fontColor=#1A1A1A;fillColor=#5D7F99;" vertex="1" parent="1">
          <mxGeometry x="52" y="630" width="50" height="50" as="geometry" />
        </mxCell>
        <mxCell id="PyQ2qdtUKRXWIdWM2zt3-79" value="chokolat&amp;nbsp;&lt;div&gt;yasladi&lt;/div&gt;" style="text;html=1;align=center;verticalAlign=middle;resizable=0;points=[];autosize=1;strokeColor=none;fillColor=none;fontSize=16;fontColor=#1A1A1A;" vertex="1" parent="1">
          <mxGeometry x="34.5" y="673.5" width="82" height="50" as="geometry" />
        </mxCell>
        <mxCell id="PyQ2qdtUKRXWIdWM2zt3-83" value="" style="edgeStyle=orthogonalEdgeStyle;rounded=0;orthogonalLoop=1;jettySize=auto;html=1;strokeColor=#736CA8;fontSize=12;fontColor=#1A1A1A;startSize=8;endSize=8;" edge="1" parent="1" source="PyQ2qdtUKRXWIdWM2zt3-48" target="PyQ2qdtUKRXWIdWM2zt3-82">
          <mxGeometry relative="1" as="geometry">
            <mxPoint x="300.6666666666667" y="633" as="targetPoint" />
            <mxPoint x="-1164" y="562" as="sourcePoint" />
          </mxGeometry>
        </mxCell>
        <mxCell id="PyQ2qdtUKRXWIdWM2zt3-84" style="edgeStyle=none;curved=1;rounded=0;orthogonalLoop=1;jettySize=auto;html=1;strokeColor=#736CA8;fontSize=12;fontColor=#1A1A1A;startSize=8;endSize=8;" edge="1" parent="1" source="PyQ2qdtUKRXWIdWM2zt3-82">
          <mxGeometry relative="1" as="geometry">
            <mxPoint x="445.3333333333335" y="613" as="targetPoint" />
          </mxGeometry>
        </mxCell>
        <mxCell id="PyQ2qdtUKRXWIdWM2zt3-82" value="" style="points=[[0.25,0.25,0],[0.5,0,0],[0.75,0.25,0],[1,0.5,0],[0.75,0.75,0],[0.5,1,0],[0.25,0.75,0],[0,0.5,0]];shape=mxgraph.bpmn.gateway2;html=1;verticalLabelPosition=bottom;labelBackgroundColor=#ffffff;verticalAlign=top;align=center;perimeter=rhombusPerimeter;outlineConnect=0;outline=none;symbol=none;gwType=parallel;strokeColor=#D0CEE2;fontColor=#1A1A1A;fillColor=#5D7F99;" vertex="1" parent="1">
          <mxGeometry x="277" y="588" width="50" height="50" as="geometry" />
        </mxCell>
        <mxCell id="PyQ2qdtUKRXWIdWM2zt3-86" style="edgeStyle=none;curved=1;rounded=0;orthogonalLoop=1;jettySize=auto;html=1;strokeColor=#736CA8;fontSize=12;fontColor=#1A1A1A;startSize=8;endSize=8;" edge="1" parent="1" source="PyQ2qdtUKRXWIdWM2zt3-85">
          <mxGeometry relative="1" as="geometry">
            <mxPoint x="653.666666666667" y="613" as="targetPoint" />
          </mxGeometry>
        </mxCell>
        <mxCell id="PyQ2qdtUKRXWIdWM2zt3-85" value="qadoqlash ishlari bajarilad" style="rounded=0;whiteSpace=wrap;html=1;strokeColor=#D0CEE2;fontColor=#1A1A1A;fillColor=#5D7F99;" vertex="1" parent="1">
          <mxGeometry x="427" y="583" width="120" height="60" as="geometry" />
        </mxCell>
        <mxCell id="PyQ2qdtUKRXWIdWM2zt3-87" value="" style="points=[[0.145,0.145,0],[0.5,0,0],[0.855,0.145,0],[1,0.5,0],[0.855,0.855,0],[0.5,1,0],[0.145,0.855,0],[0,0.5,0]];shape=mxgraph.bpmn.event;html=1;verticalLabelPosition=bottom;labelBackgroundColor=#ffffff;verticalAlign=top;align=center;perimeter=ellipsePerimeter;outlineConnect=0;aspect=fixed;outline=throwing;symbol=general;strokeColor=#D0CEE2;fontColor=#1A1A1A;fillColor=#5D7F99;" vertex="1" parent="1">
          <mxGeometry x="652" y="588" width="50" height="50" as="geometry" />
        </mxCell>
        <mxCell id="PyQ2qdtUKRXWIdWM2zt3-88" value="&amp;nbsp;ishlab chiqarish buyurtmasi&lt;div&gt;&amp;nbsp;muvaffaqiyatli&amp;nbsp;&lt;/div&gt;&lt;div&gt;yakunlanadi.&lt;/div&gt;" style="text;html=1;align=center;verticalAlign=middle;resizable=0;points=[];autosize=1;strokeColor=none;fillColor=none;fontSize=16;fontColor=#1A1A1A;" vertex="1" parent="1">
          <mxGeometry x="587" y="628" width="215" height="70" as="geometry" />
        </mxCell>
      </root>
    </mxGraphModel>
  </diagram>
</mxfile>
